<?xml version="1.0" encoding="utf-8"?>
<!-- Generator: Adobe Illustrator 27.1.0, SVG Export Plug-In . SVG Version: 6.00 Build 0)  -->
<svg version="1.1" id="Layer_1" xmlns="http://www.w3.org/2000/svg" xmlns:xlink="http://www.w3.org/1999/xlink" x="0px" y="0px"
	 viewBox="0 0 680 680" style="enable-background:new 0 0 680 680;" xml:space="preserve">
<style type="text/css">
	.st0{clip-path:url(#SVGID_00000070102642528248604500000006925497806802384537_);fill:#3B3C3B;}
	.st1{clip-path:url(#SVGID_00000070102642528248604500000006925497806802384537_);}
	.st2{clip-path:url(#SVGID_00000114782837895815846450000002279494712603243912_);fill:#F36625;}
	.st3{clip-path:url(#SVGID_00000114782837895815846450000002279494712603243912_);fill:#FFFFFF;}
	.st4{clip-path:url(#SVGID_00000070102642528248604500000006925497806802384537_);fill:#FFFFFF;}
	.st5{clip-path:url(#SVGID_00000070102642528248604500000006925497806802384537_);fill:#3C3C3C;}
</style>
<g>
	<defs>
		<path id="SVGID_1_" d="M547.2,672.24H132.52C64.5,672.24,9.36,617.1,9.36,549.08V134.4c0-68.02,55.14-123.16,123.16-123.16H547.2
			c68.02,0,123.16,55.14,123.16,123.16v414.68C670.36,617.1,615.22,672.24,547.2,672.24z"/>
	</defs>
	<clipPath id="SVGID_00000129193810494738204340000012139679522765672330_">
		<use xlink:href="#SVGID_1_"  style="overflow:visible;"/>
	</clipPath>
	<path style="clip-path:url(#SVGID_00000129193810494738204340000012139679522765672330_);fill:#3B3C3B;" d="M8.05,673.45
		c0-221.06,0-442.12,0-663.43c110.73,0,221.45,0,332.18,0c-1.88,3.64-3.66,7.33-5.65,10.9c-13.06,23.33-23.53,47.74-30.53,73.55
		c-0.84,3.08-1.44,5.43-1.91,7.33c-3.16,12.61-6.73,27.09-8.34,45.56c-0.93,10.65-0.89,18.97-0.86,23.59c0,0,0.08,11.26,1.11,22.63
		c5.16,57.25,29.18,102.71,29.18,102.71c9.41,17.81,18.78,30.28,21.64,34.02c7.71,10.06,17.13,19.59,35.98,38.63
		c3.88,3.92,7.57,7.58,11.48,11.33c0,0,7.36,7.06,15.05,13.94c17.74,15.86,52.74,43.37,77.54,64.24
		c7.83,6.59,19.78,16.84,34.17,30.04c18.19,15.02,37.06,32.01,56.06,51.17c8.62,8.69,16.76,17.32,24.45,25.84
		c3.42,3.32,7.57,7.53,12.12,12.57c17.58,19.45,29.53,37.27,37.7,50.16c8.1,12.78,11.26,18.62,13.59,23.86
		c3.79,8.52,6.07,15.98,7.45,21.28c-1.73,0-3.46,0-5.19,0C446.19,673.36,227.12,673.39,8.05,673.45z"/>
	<g style="clip-path:url(#SVGID_00000129193810494738204340000012139679522765672330_);">
		<defs>
			<rect id="SVGID_00000123427272449505305060000003254285336448852629_" x="7.44" y="10.02" width="663.02" height="663.43"/>
		</defs>
		<clipPath id="SVGID_00000028293784559702658000000015929541339925652865_">
			<use xlink:href="#SVGID_00000123427272449505305060000003254285336448852629_"  style="overflow:visible;"/>
		</clipPath>
		<path style="clip-path:url(#SVGID_00000028293784559702658000000015929541339925652865_);fill:#F36625;" d="M353.94,10.02
			c105.5,0,211,0,316.5,0c0,211.77,0,423.53,0,635.3c-0.37-0.75-1.2-2.43-1.59-3.21c-2.97-6.01-4.71-9.57-5.01-10.19
			c-4.95-10.03-14.34-22.61-21.57-32.31c-0.46-0.62-0.84-1.13-1.08-1.44c-0.55-0.73-0.68-0.91-0.8-1.06
			c-4.52-5.96-15.33-19.7-35.65-41.21c-16.37-17.32-33.31-34.16-50.73-50.43c-17.69-16.52-36.17-32.2-54.48-48.05
			c-15.47-13.4-31.21-26.49-46.78-39.77c-21.08-17.98-42.58-35.49-63.05-54.13c-26.72-24.33-46.84-53.74-62.05-86.45
			c-12.95-27.84-19.34-57.33-20.5-87.91c-0.44-11.58-0.26-23.25,0.6-34.81c0.95-12.77,2.17-25.64,4.76-38.16
			c7.07-34.18,19.91-66.28,36.78-96.8C350.97,16.33,352.39,13.14,353.94,10.02z M543.06,202.88c5.42-0.74,10.96-1,16.23-2.31
			c34.94-8.67,60.96-43.32,51.88-81.76c-6.71-28.41-32.79-51.37-65.59-52.66c-20.25-0.8-37.98,5.6-52.55,20.13
			c-16.16,16.13-21.95,35.97-18.98,57.91C478.63,177.86,508.91,202.92,543.06,202.88z"/>
		<path style="clip-path:url(#SVGID_00000028293784559702658000000015929541339925652865_);fill:#FFFFFF;" d="M353.94,10.02
			c-1.54,3.12-2.96,6.31-4.64,9.35c-16.87,30.52-29.71,62.63-36.78,96.8c-2.59,12.52-3.81,25.39-4.76,38.16
			c-0.86,11.56-1.04,23.22-0.6,34.81c1.15,30.58,7.54,60.07,20.5,87.91c15.22,32.71,35.33,62.12,62.05,86.45
			c20.47,18.64,41.97,36.16,63.05,54.13c15.57,13.28,31.31,26.37,46.78,39.77c18.3,15.85,36.79,31.53,54.48,48.05
			c17.42,16.27,34.36,33.1,50.73,50.43c5.98,6.33,11.41,12.45,11.41,12.45c5,5.58,11.97,13.38,19.88,23.16
			c9.32,11.53,15.84,19.58,22.95,31.3c5.34,8.8,9.07,16.46,11.45,21.72c0,8.82,0,17.64,0,26.46c-2-4.51-4.98-10.9-8.95-18.38
			c-9.89-18.62-19.41-31.63-30.16-46.32c-9.38-12.81-12.73-16.24-20.95-26.96c-1.05-1.37-3.9-4.73-7.68-9.2
			c-0.77-0.91-1.63-1.73-2.76-2.93c0,0-0.65,1.68-0.66,1.71c-1.17,3.04-6.53,24.89-15.18,41.53c-1.89,3.63-1.61,3.26-6.52,11.5
			c-2.3,3.86-4.6,7.73-7.03,11.51c-1.07,1.67-2.35,3.25-3.76,4.64c-4.08,4.05-8.93,4.76-12.87,2.04c-4.39-3.04-5.97-8.59-3.34-13.63
			c3.87-7.41,8.17-14.6,12.2-21.94c7.92-14.42,13.45-29.66,17.45-45.67c0.6-2.39,1.4-5.84,0.08-9.57c-0.66-1.86-1.14-1.8-8.02-9.77
			c-2.54-2.95-4.09-4.83-6.86-7.51c-1.3-1.25-2.42-2.25-3.21-2.95c-0.27,1.07-0.83,3.3-1.61,6.08
			c-10.88,38.88-31.23,70.19-31.24,70.22c0,0-7.87,6.1-12.56,3.63c-4.5-2.37-7.29-7.75-5.91-12.22c0.76-2.46,2.12-4.79,3.48-7.02
			c0,0,11.13-12.52,26.59-63.96c0.81-2.69,1.22-5.45,1.22-5.45c0.07-0.44,0.51-3.45,0.39-5.25c-0.05-0.73-0.14-1.42-0.37-2.15
			c0,0-0.71-2.46-6.32-7.53c0,0-6.06-5.26-17.34-15.05c-0.13,1.16-0.41,3.56-0.85,6.56c-5.76,39.34-22.38,72.43-22.38,72.43
			c0,0-2.55,3.58-5.69,4.36c-2.18,0.54-4.51,0.15-6.77-1.06c-4.86-2.58-6.96-7.1-5.21-12.66c3.48-11.07,8.06-21.85,10.76-33.08
			c4.02-16.71,6.85-33.7,10.06-50.6c0.4-2.09-1-3.71-1-3.71c-0.22-0.41-0.61-1.07-2.18-2.79c-1.58-1.73-2.86-2.91-2.86-2.91
			c-5.11-4.71-7.77-7.22-12.14-10.47c-0.86-0.64-1.57-1.16-2.04-1.51c-0.09,1.35-0.26,3.78-0.52,6.79
			c-1.51,17.28-2.88,32.61-14.11,59.49c-1.04,2.5-2.53,4.91-4.24,7.02c-3.32,4.1-8.71,5.13-12.78,2.8
			c-4.8-2.74-6.83-7.52-5.11-12.75c2.99-9.13,6.32-18.14,9.19-27.3c5.25-16.76,6.61-34.01,5.96-51.47c-0.04-1.02-0.48-2.3-1.19-2.97
			c-5.47-5.12-7.69-6.4-15.82-14.09c0,0-2.68-2.53-8.39-7.45c-0.26-0.22-0.65-0.63-1.28-1.06c-0.31-0.21-0.94-0.61-0.94-0.61
			c0,0,0.09,5.62,0.09,5.64c0.04,7.91-0.24,33.44-9.4,68.33c-3.04,11.59-8.68,33.59-22.03,59.24
			c-9.85,18.93-21.03,37.16-31.48,55.77c-4.15,7.4-7.89,15.04-11.88,22.53c-0.87,1.64-1.92,3.22-3.06,4.69
			c-4.17,5.38-8.92,6.74-13.61,4.01c-5.28-3.07-7.26-9-4.33-14.97c4.89-9.97,9.97-19.86,15.38-29.56
			c9.18-16.47,19.3-32.44,27.87-49.21c13.13-25.69,22.41-52.9,27.25-81.38c2.21-13.01,2.9-26.28,4.11-39.44
			c0.46-4.97,0.16-10.01,0.71-14.96c0.22-2.02,0.06-3.79-0.46-5.39c-1.08-3.33-3.35-5.33-4.45-6.3
			c-7.72-6.79-14.92-14.15-22.7-20.88c-1.56-1.35-2.8-2.44-3.51-3.05l-0.04,2.07c-0.01,0.79-0.04,2.01-0.06,3.5
			c-0.36,19.1-0.41,32.43-1.51,46.64c-0.83,10.72-1.28,16.08-1.5,18.53c-1.93,21.79-7.18,42.86-14.58,63.35
			c-9.12,25.28-21.53,48.91-37.47,70.6c-2.56,3.48-5.31,6.95-10.07,7.9c-4.04,0.8-7.14-0.66-9.68-3.52
			c-2.59-2.92-3.61-6.39-1.91-10.07c1.25-2.7,2.85-5.27,4.55-7.72c24.4-35.38,41.05-73.94,46.94-116.69
			c1.91-13.82,2.57-27.84,3.25-41.8c0.61-12.6,0.5-25.23,0.65-37.85c0.15-12.18-4.35-22.7-11.93-31.96
			c-3.76-4.59-8.64-7.46-14.68-8.19c-10.53-1.27-21.01-1.13-31.19,1.95c-12.65,3.83-22.39,16.67-23.22,29.91
			c-0.31,4.98-0.49,9.98-0.72,14.97c-0.32,6.77-4.28,11.2-10.12,11.29c-5.62,0.09-10.65-4.9-10.86-11.17
			c-0.43-13.16-0.11-26.19,6.03-38.39c8.18-16.25,21.9-24.98,39.07-28.6c7.02-1.48,14.37-1.39,21.58-2c1.18-0.1,2.37-0.11,4.18-0.19
			c-0.91-2.02-1.55-3.45-2.2-4.89c-3.9-8.65-7.85-17.27-11.68-25.95c-0.85-1.93-1.78-3.23-4.14-2.78
			c-29.1,5.56-53.6,18.95-71.33,43.09c-8.55,11.64-12.57,25.22-13,39.67c-0.48,16.11-0.61,32.23-0.95,48.35
			c-0.39,18.53-1.89,36.94-7.57,54.72c-6.06,18.96-16.38,35.54-29.17,50.64c-3.31,3.9-6.81,7.66-10.47,11.23
			c-4.69,4.58-10.24,4.93-14.47,1.28c-4.21-3.64-4.96-9.45-1.28-14.5c4.62-6.35,9.76-12.33,14.53-18.58
			c11.51-15.1,20.05-31.66,23.52-50.47c1.35-7.34,2.29-14.83,2.55-22.28c0.63-17.86,0.55-35.73,1.13-53.59
			c0.51-15.67,2.75-31.05,9.3-45.56c8.47-18.77,22.46-32.59,39.2-43.82c15.43-10.36,32.29-17.41,50.92-19.62
			c2.35-0.28,3.41-1.09,2.67-3.64c-6.43-22.12-8.98-44.75-8.65-67.73c0.02-1.12-0.08-2.25-0.06-3.37c0.03-2-0.99-2.51-2.86-2.42
			c-25.96,1.29-50.02,9.02-72.63,21.52c-21.58,11.93-40.1,27.52-55.33,46.97c-0.62,0.79-1.3,1.52-1.99,2.24
			c-5.25,5.51-10.47,6.4-15.11,2.6c-5.22-4.27-5.89-9.79-1.24-15.88c12.02-15.75,25.54-30.07,41.56-41.89
			c24.25-17.88,51.21-29.53,80.86-34.77c7.48-1.32,15.12-2.02,22.71-2.31c4.12-0.16,5.01-1.73,5.58-5.42
			c2.2-14.29,4.17-28.66,7.41-42.73c6.64-28.78,18.32-55.65,32.71-81.38c1.76-3.15,3.31-6.42,4.95-9.63
			C344.44,10.02,349.19,10.02,353.94,10.02z"/>
		<path style="clip-path:url(#SVGID_00000028293784559702658000000015929541339925652865_);fill:#FFFFFF;" d="M274.5,417.32
			c-1.39,28.5-8.73,55.43-21.96,80.62c-12.68,24.14-27.57,46.96-44.05,68.64c-7.97,10.49-17.58,19.73-26.59,29.41
			c-4.42,4.75-9.03,9.35-13.79,13.76c-3.43,3.17-7.4,5.23-12.24,2.72c-4.1-2.13-6.99-6.76-5.78-11.15c0.85-3.07,2.86-6.08,5.06-8.47
			c8.37-9.1,17.53-17.51,25.43-26.98c9.17-10.99,17.61-22.63,25.83-34.37c10.46-14.92,20.43-30.18,28.23-46.73
			c10.72-22.72,16.9-46.59,18.68-71.64c0.47-6.65,4.6-11.15,10.46-11.79c5.89-0.64,10.52,3.32,10.72,9.24
			C274.56,412.82,274.5,415.07,274.5,417.32z"/>
		<path style="clip-path:url(#SVGID_00000028293784559702658000000015929541339925652865_);fill:#FFFFFF;" d="M150.76,333.67
			c0.93-4.28,2.24-10.51,3.64-16.72c9.55-42.26,34.98-72.86,70.92-95.39c8.41-5.27,17.78-9.06,26.9-13.09
			c2.83-1.25,6.32-1.43,9.49-1.36c3.96,0.09,6.66,2.6,8.14,6.25c1.5,3.7,1.18,7.48-1.82,10.04c-3.07,2.62-6.67,4.86-10.38,6.45
			c-20.45,8.74-37.99,21.42-53.07,37.71c-14.11,15.25-22.81,33.28-28.04,53.16c-1.34,5.07-2.35,10.23-3.71,15.3
			c-0.57,2.14-1.36,4.32-2.56,6.16c-2.88,4.43-7.76,6.07-12.39,4.54C153.08,345.13,150.52,341.2,150.76,333.67z"/>
		<path style="clip-path:url(#SVGID_00000028293784559702658000000015929541339925652865_);fill:#FFFFFF;" d="M75.63,373.41
			c0,7-0.26,14,0.05,20.99c0.9,20.63-4.02,40.14-10.98,59.3c-1.62,4.46-3.06,8.99-4.86,13.38c-1.22,2.99-2.64,5.97-4.46,8.62
			c-3.11,4.52-8.29,5.93-12.87,3.95c-4.72-2.04-7.54-7.02-6.58-12.24c0.47-2.56,1.46-5.03,2.32-7.5c3.45-9.9,7.12-19.73,10.38-29.7
			c3.61-11.01,4.92-22.37,4.87-33.98c-0.07-18.11,0.19-36.23,0.36-54.34c0.02-2.62,0.11-5.26,0.54-7.84
			c1.01-6.1,5.71-9.84,11.54-9.45c5.27,0.36,9.34,4.71,9.68,10.58c0.19,3.24,0.08,6.49,0.08,9.74c0.01,9.49,0,18.99,0,28.48
			C75.68,373.41,75.65,373.41,75.63,373.41z"/>
		<path style="clip-path:url(#SVGID_00000028293784559702658000000015929541339925652865_);fill:#FFFFFF;" d="M99.12,394.11
			c0-14.97,0.13-29.95-0.03-44.92c-0.25-24.07,3.46-47.45,11.79-70.06c0.78-2.11,1.38-4.32,2.5-6.24c1.24-2.11,2.7-4.24,4.54-5.81
			c4.01-3.41,9.28-3.58,13.19-0.89c3.92,2.7,4.98,6.82,3.32,12.35c-3.49,11.58-7.56,23.03-10.17,34.8
			c-2.12,9.55-3.16,19.47-3.43,29.26c-0.55,20.22-0.26,40.45-0.3,60.68c-0.01,3.7-0.48,7.18-3.2,10.06
			c-3.08,3.26-6.65,4.89-11.09,3.55c-4.05-1.23-6.97-5.32-7.15-10.06c-0.16-4.24-0.03-8.49-0.03-12.73
			C99.09,394.11,99.1,394.11,99.12,394.11z"/>
		<path style="clip-path:url(#SVGID_00000028293784559702658000000015929541339925652865_);fill:#FFFFFF;" d="M183.17,74.6
			c5.8,0.06,9.35,2.18,11.26,6.43c1.9,4.23,0.88,8.25-2.57,11.22c-2.51,2.16-5.31,4.33-8.37,5.46
			c-31.35,11.53-55.94,31.44-74.4,59.17c-2.62,3.93-5.65,7.66-8.94,11.04c-4.49,4.61-9.9,5.02-14.16,1.67
			c-4.86-3.82-5.88-8.93-2.42-14.64c22.27-36.75,52.07-64.62,93.4-78.78C179.31,75.37,181.78,74.94,183.17,74.6z"/>
		<path style="clip-path:url(#SVGID_00000028293784559702658000000015929541339925652865_);fill:#FFFFFF;" d="M147.59,172.25
			c-1.3,3.19-2.14,6.69-3.98,9.53c-8.06,12.47-15.97,25.08-24.77,37.02c-13.65,18.52-27.63,36.75-36.52,58.24
			c-1.82,4.39-4.76,8.09-9.82,8.98c-7.85,1.4-14.38-6.45-11.13-14.33c4.31-10.47,8.86-21.04,14.92-30.54
			c9.59-15.03,20.63-29.13,30.83-43.77c5.35-7.68,10.1-15.77,15.4-23.48c2.37-3.44,5.12-6.78,8.29-9.47
			c3.13-2.66,7.26-2.9,10.96-0.9C144.99,165.27,147.12,168.04,147.59,172.25z"/>
		<path style="clip-path:url(#SVGID_00000028293784559702658000000015929541339925652865_);fill:#FFFFFF;" d="M326.02,410.36
			c-0.01,2.17-0.03,4.34-0.05,6.51c-0.09,8.68-0.27,17.35-0.58,26.02c-0.25,7.23,1.33,16.08-5.32,20.82c-3.3,2.35-6.91,3-10.59,1.13
			c-3.94-2-6.43-5.18-6.39-9.8c0.07-7.48,0.37-14.97,0.41-22.45c0.11-21.72,0.13-43.44,0.22-65.16c0.03-7.67,4.2-12.31,10.95-12.36
			c6.78-0.05,11.06,4.39,11.15,12.22C325.98,381.43,326.1,395.98,326.02,410.36z"/>
		<path style="clip-path:url(#SVGID_00000028293784559702658000000015929541339925652865_);fill:#FFFFFF;" d="M274.1,117.33
			c-0.38,3.67-2.06,7.34-6.31,9.1c-2.15,0.89-4.56,1.46-6.88,1.61c-20.95,1.32-40.35,7.97-59.13,16.85c-3.61,1.71-7.2,3.49-10.9,5
			c-5.54,2.26-10.97,0.51-14.1-4.32c-2.81-4.34-1.99-9.94,2.49-13.83c2.51-2.18,5.44-4.03,8.44-5.5
			c19.06-9.36,38.86-16.56,60.07-19.17c5.19-0.64,10.47-0.93,15.7-0.82C269.83,106.38,273.98,110.73,274.1,117.33z"/>
		<path style="clip-path:url(#SVGID_00000028293784559702658000000015929541339925652865_);fill:#FFFFFF;" d="M170.12,396.8
			c-1.47,27.36-10,52.07-27.62,73.32c-1.49,1.8-3.33,3.4-5.28,4.7c-4.38,2.92-8.9,2.39-12.63-1.16c-3.48-3.32-4.3-7.9-1.63-12.29
			c3.56-5.86,7.66-11.39,11.24-17.23c7.45-12.15,10.61-25.73,12.77-39.62c0.57-3.68,1.34-7.37,2.39-10.94
			c2.08-7.09,6.95-10.35,13.26-9.19C167.74,385.32,170.37,389.65,170.12,396.8z"/>
		<path style="clip-path:url(#SVGID_00000028293784559702658000000015929541339925652865_);fill:#FFFFFF;" d="M402.33,628.08
			c-6.31,0.05-11.66-5.78-10.66-11.54c0.47-2.72,1.65-5.63,3.36-7.76c12.11-15.14,21.66-31.76,29.58-49.39
			c1.22-2.72,2.75-5.35,4.48-7.78c3.54-4.95,9.47-6.5,14.19-3.99c5.08,2.71,6.62,7.61,4.35,13.89
			c-8.17,22.62-21.11,42.42-36.19,60.92C408.95,625.49,405.99,627.96,402.33,628.08z"/>
		<path style="clip-path:url(#SVGID_00000028293784559702658000000015929541339925652865_);fill:#FFFFFF;" d="M304.07,502.41
			c-0.62,2-1.04,4.1-1.89,6c-9.45,21.12-21.76,40.43-36.73,58.06c-2.74,3.23-6.02,5.82-10.63,5.19c-7.15-0.98-11.36-8.71-7.65-14.98
			c4-6.74,9.17-12.78,13.33-19.44c6.67-10.69,12.96-21.61,19.33-32.48c2.6-4.44,4.92-9.02,10.14-11.06
			C296.57,491.14,303.64,495.52,304.07,502.41z"/>
		<path style="clip-path:url(#SVGID_00000028293784559702658000000015929541339925652865_);fill:#FFFFFF;" d="M112.48,65.45
			c-0.97,2.25-1.6,4.73-2.96,6.7c-10.99,15.91-22.11,31.73-33.25,47.54c-1.14,1.61-2.55,3.09-4.06,4.38
			c-3.91,3.33-9.16,3.36-13.08,0.24c-4.13-3.29-5.59-8.14-2.88-12.67c10.55-17.68,21.27-35.29,35.1-50.68
			c1.91-2.13,4.71-3.84,7.43-4.78C105.39,53.91,111.94,58.62,112.48,65.45z"/>
		<path style="clip-path:url(#SVGID_00000028293784559702658000000015929541339925652865_);fill:#FFFFFF;" d="M273.64,50.16
			c2,0,3.99-0.02,5.99,0c7.06,0.09,11.39,3.72,11.75,9.85c0.35,5.78-4.16,10.42-10.62,11.49c-12.9,2.14-25.79,4.4-38.65,6.8
			c-5.51,1.03-10.87,2.82-16.39,3.75c-6.14,1.04-11.4-2.26-12.99-7.51c-1.47-4.85,1.24-11.08,6.95-12.93
			c7.34-2.37,11.96-6.01,32.08-8.65C261.37,51.71,269.06,50.73,273.64,50.16z"/>
		<path style="clip-path:url(#SVGID_00000028293784559702658000000015929541339925652865_);fill:#FFFFFF;" d="M189.96,626.96
			c2.28-5.05,6.15-6.01,10.97-11.23c8.8-9.52,17.45-19.19,26.24-28.72c2.01-2.18,4.15-4.37,6.6-6.01c4.23-2.82,8.64-2.16,12.32,1.31
			c3.33,3.14,4.46,7.47,1.64,11.56c-5.29,7.68-10.8,15.31-17.07,22.19c-7.81,8.56-16.39,16.44-24.82,24.42
			c-3.4,3.22-6.88,4.56-10.07,4.02c-3.6-0.61-5.72-3.36-5.97-3.7C186.04,635.66,189.36,628.29,189.96,626.96z"/>
		<path style="clip-path:url(#SVGID_00000028293784559702658000000015929541339925652865_);fill:#FFFFFF;" d="M438.3,645.7
			c-6.56,0.09-11.64-4.8-9.99-11.56c0.91-3.73,3.4-6.83,5.77-9.85c6.44-8.24,12.41-16.84,17.87-25.76
			c3.02-4.94,6.14-10.22,11.24-12.96c5.1-2.74,12.81-1.5,14.79,3.95c1.43,3.94-0.58,8.22-2.62,11.88
			c-6.89,12.34-14.78,24.13-23.57,35.2C448.22,641.11,444.46,645.61,438.3,645.7z"/>
		<path style="clip-path:url(#SVGID_00000028293784559702658000000015929541339925652865_);fill:#FFFFFF;" d="M105.64,588.33
			c-8.1-0.73-13.42-9.69-9.47-16.3c1.32-2.22,3.04-4.32,4.97-6.04c10.07-8.98,20.23-17.85,30.44-26.66
			c1.87-1.61,4.03-3.01,6.27-4.02c4.57-2.04,9.37-0.92,12.31,2.49c3.18,3.69,3.43,7.77,0.43,12.42c-1.41,2.19-3.06,4.33-4.99,6.05
			c-10.54,9.37-21.13,18.7-31.9,27.81C111.45,586,108.36,586.94,105.64,588.33z"/>
		<path style="clip-path:url(#SVGID_00000028293784559702658000000015929541339925652865_);fill:#FFFFFF;" d="M69.66,549.6
			c-8.86-0.03-14.03-8.22-10.87-14.31c1.08-2.07,2.57-4.03,4.23-5.68c9.86-9.75,19.77-19.46,29.81-29.02
			c2.32-2.21,5.07-4.11,7.91-5.61c4.39-2.3,9.49-1.22,12.34,2.12c3.06,3.58,3.24,8.08,0.23,12.45c-1.41,2.04-3.07,3.96-4.86,5.69
			c-10.07,9.72-20.11,19.47-30.42,28.94C75.22,546.78,71.52,548.42,69.66,549.6z"/>
		<path style="clip-path:url(#SVGID_00000028293784559702658000000015929541339925652865_);fill:#FFFFFF;" d="M283.83,636.43
			c-7.19,0.13-12.97-8.18-9.29-14.6c5.01-8.73,10.92-16.99,17-25.02c3.14-4.14,8.51-4.51,12.58-2.18c4.43,2.53,6.16,6.84,4.58,12.24
			c-0.69,2.37-1.64,4.78-3.01,6.81c-3.91,5.79-7.97,11.48-12.21,17.04C290.47,634.68,287.2,636.37,283.83,636.43z"/>
		<path style="clip-path:url(#SVGID_00000028293784559702658000000015929541339925652865_);fill:#FFFFFF;" d="M69.13,198.6
			c-0.06,7.06-6.99,14.02-13.95,13.98c-6.58-0.04-12.59-6.27-12.46-12.92c0.14-6.91,6.76-13.25,13.73-13.14
			C63.51,186.64,69.18,192.04,69.13,198.6z"/>
		<path style="clip-path:url(#SVGID_00000028293784559702658000000015929541339925652865_);fill:#FFFFFF;" d="M72.11,608.14
			c5.4,0.02,10.29,4.77,10.23,9.91c-0.06,5.43-5.6,10.63-11.18,10.49c-5.19-0.13-9.76-4.79-9.75-9.96
			C61.42,613.2,66.63,608.11,72.11,608.14z"/>
		<path style="clip-path:url(#SVGID_00000028293784559702658000000015929541339925652865_);fill:#FFFFFF;" d="M543.06,202.88
			c-34.16,0.04-64.43-25.02-68.99-58.69c-2.97-21.94,2.82-41.78,18.98-57.91c14.56-14.53,32.29-20.93,52.55-20.13
			c32.79,1.29,58.88,24.25,65.59,52.66c9.08,38.45-16.95,73.09-51.88,81.76C554.02,201.88,548.48,202.14,543.06,202.88z"/>
	</g>
	<path style="clip-path:url(#SVGID_00000129193810494738204340000012139679522765672330_);fill:#FFFFFF;" d="M439.91,464.77"/>
	<path style="clip-path:url(#SVGID_00000129193810494738204340000012139679522765672330_);fill:#3C3C3C;" d="M235.53,33.53"/>
</g>
</svg>
