<?xml version="1.0" encoding="UTF-8" standalone="no"?>
<svg xmlns:inkscape="http://www.inkscape.org/namespaces/inkscape" xmlns:sodipodi="http://sodipodi.sourceforge.net/DTD/sodipodi-0.dtd" xmlns="http://www.w3.org/2000/svg" xmlns:svg="http://www.w3.org/2000/svg" id="Ebene_1" data-name="Ebene 1" viewBox="0 0 229.12226 127.52723" version="1.1" sodipodi:docname="Logo_FOR_RGB-White.svg" inkscape:version="1.3.2 (091e20e, 2023-11-25, custom)">
  <defs id="defs1">
    <style id="style1">
      .cls-1 {
        fill: #fff;
      }
    </style>
  </defs>
  <g id="g30">
    <g id="g6" style="fill:#ffffff;fill-opacity:1">
      <path d="M107.42121,96.99849V94.395L128.2229,72.26222H108.75576V69.65869h23.392v2.60353L111.22813,94.395h21.23352v2.60352Z" id="path1" style="fill:#ffffff;fill-opacity:1"></path>
      <path d="M152.24272,96.99849V93.09321h-.07883a6.87408,6.87408,0,0,1-3.15953,3.2537,10.84787,10.84787,0,0,1-5.318,1.2641q-4.51432,0-6.65253-2.04822a7.91535,7.91535,0,0,1-2.1389-5.99257V77.087h2.90419V90.02925a4.938,4.938,0,0,0,1.49152,3.84808,6.84208,6.84208,0,0,0,4.70965,1.36037q4.04237,0,6.14256-1.89614a6.77961,6.77961,0,0,0,2.09984-5.30332V77.087h2.9042V96.99849Zm-13.109-23.54892V69.23733h2.86513v4.21224Zm8.83049,0V69.23733h2.9049v4.21224Z" id="path2" style="fill:#ffffff;fill-opacity:1"></path>
      <path d="M159.62077,96.99849V77.087H162.525v4.55687h.07814a8.77108,8.77108,0,0,1,3.12046-3.94436,8.573,8.573,0,0,1,4.72918-1.225,6.53766,6.53766,0,0,1,1.68824.15348V79.537a16.58272,16.58272,0,0,0-2.63-.22882,6.70315,6.70315,0,0,0-5.004,2.02868,7.29529,7.29529,0,0,0-1.982,5.32286V96.99849Z" id="path3" style="fill:#ffffff;fill-opacity:1"></path>
      <path d="M174.06363,73.64072V69.42848h2.9042v4.21224Zm0,23.35777V77.087h2.9042V96.99849Z" id="path4" style="fill:#ffffff;fill-opacity:1"></path>
      <path d="M202.12547,89.87577a9.51055,9.51055,0,0,1-3.45393,5.64795,10.81471,10.81471,0,0,1-6.86809,2.08729,11.98833,11.98833,0,0,1-8.37983-2.83374,9.92248,9.92248,0,0,1-3.11976-7.73384,10.0001,10.0001,0,0,1,3.08069-7.7157q3.0807-2.85257,8.4189-2.85327a11.44076,11.44076,0,0,1,6.84856,1.93381,8.054,8.054,0,0,1,3.31649,5.18891h-2.9042q-1.29548-4.74871-7.26085-4.74941a8.68007,8.68007,0,0,0-6.29952,2.22123,8.945,8.945,0,0,0,0,11.967,8.724,8.724,0,0,0,6.29952,2.2017,8.15634,8.15634,0,0,0,4.82755-1.36037,6.69466,6.69466,0,0,0,2.59027-4.00156Z" id="path5" style="fill:#ffffff;fill-opacity:1"></path>
      <path d="M222.69206,96.99849V84.05621a4.94244,4.94244,0,0,0-1.49152-3.84808,6.85161,6.85161,0,0,0-4.70964-1.36036q-4.04342,0-6.14256,1.89613a6.77924,6.77924,0,0,0-2.09985,5.30333V96.99849h-2.9042v-27.57h2.9042V80.99226h.07814a6.44958,6.44958,0,0,1,3.14-3.216,10.99225,10.99225,0,0,1,5.33821-1.30176q4.43478,0,6.61275,2.01055,2.17868,2.00914,2.17868,6.03024V96.99849Z" id="path6" style="fill:#ffffff;fill-opacity:1"></path>
    </g>
    <g id="g26" style="fill:#ffffff;fill-opacity:1">
      <path d="M5.325,116.01148v7.59012H3.65345v-16.129H15.73836v1.53616H5.325v5.46657h9.89367v1.53616Z" id="path7" style="fill:#ffffff;fill-opacity:1"></path>
      <path d="M16.59643,117.729a6.70259,6.70259,0,0,1,.71158-3.06116,5.52962,5.52962,0,0,1,2.21425-2.29378,7.30015,7.30015,0,0,1,3.73855-.8804,6.674,6.674,0,0,1,4.868,1.751A5.99035,5.99035,0,0,1,29.9245,117.729a5.916,5.916,0,0,1-1.8187,4.529,6.79527,6.79527,0,0,1-4.845,1.705,6.77035,6.77035,0,0,1-4.84568-1.71615A5.92664,5.92664,0,0,1,16.59643,117.729Zm1.6722,0a4.66707,4.66707,0,0,0,1.36664,3.50067,4.96764,4.96764,0,0,0,3.62554,1.33246,5.02939,5.02939,0,0,0,3.61438-1.31014,4.63439,4.63439,0,0,0,1.37781-3.523,5.14347,5.14347,0,0,0-.62159-2.54213,4.162,4.162,0,0,0-1.75033-1.705,5.64943,5.64943,0,0,0-2.64329-.5874,4.93664,4.93664,0,0,0-3.60252,1.33246A4.66813,4.66813,0,0,0,18.26863,117.729Z" id="path8" style="fill:#ffffff;fill-opacity:1"></path>
      <path d="M31.84435,123.6016V111.85505h1.6715v2.68863h.04535a5.15144,5.15144,0,0,1,1.79568-2.32726,4.84439,4.84439,0,0,1,2.72212-.72274,3.67875,3.67875,0,0,1,.97179.09069v1.71615a9.36322,9.36322,0,0,0-1.51384-.13534,3.80742,3.80742,0,0,0-2.87979,1.19712,4.36123,4.36123,0,0,0-1.14131,3.14069v6.09861Z" id="path9" style="fill:#ffffff;fill-opacity:1"></path>
      <path d="M41.219,118.135a4.18377,4.18377,0,0,0,1.31014,3.1965,4.77915,4.77915,0,0,0,3.41067,1.23061,6.41338,6.41338,0,0,0,3.07233-.60972,3.45452,3.45452,0,0,0,1.58081-2.10124h1.6722a5.5513,5.5513,0,0,1-2.30425,3.08349A7.38736,7.38736,0,0,1,45.9398,123.963a6.30344,6.30344,0,0,1-4.69848-1.71615,6.15592,6.15592,0,0,1-1.69452-4.5178,6.05069,6.05069,0,0,1,1.751-4.50663,6.319,6.319,0,0,1,4.642-1.72871,6.03366,6.03366,0,0,1,6.619,6.64136Zm9.66765-1.26549a4.4883,4.4883,0,0,0-1.58081-2.93559,5.59522,5.59522,0,0,0-6.57369.05581,4.11555,4.11555,0,0,0-1.51315,2.87978Z" id="path10" style="fill:#ffffff;fill-opacity:1"></path>
      <path d="M64.327,123.6016v-7.63477a2.92315,2.92315,0,0,0-.86924-2.28122,3.91784,3.91784,0,0,0-2.69979-.79111,5.03,5.03,0,0,0-3.53485,1.11759,4.05346,4.05346,0,0,0-1.209,3.12954v6.46h-1.6715V111.85505h1.6715V114.16h.04534a3.7567,3.7567,0,0,1,1.8187-1.89753,6.21867,6.21867,0,0,1,3.06047-.76878,5.30722,5.30722,0,0,1,3.79506,1.20828,4.66471,4.66471,0,0,1,1.26549,3.53555v7.36409Z" id="path11" style="fill:#ffffff;fill-opacity:1"></path>
      <path d="M77.067,115.33339a2.72686,2.72686,0,0,0-1.29827-1.94218,6.04381,6.04381,0,0,0-2.72213-.49671q-3.41136,0-3.41137,2.01055a1.18993,1.18993,0,0,0,.57624,1.09527,4.88539,4.88539,0,0,0,1.728.53019l3.79506.61112a5.16286,5.16286,0,0,1,2.47377.94876,2.59093,2.59093,0,0,1,.86924,2.14589,3.17966,3.17966,0,0,1-1.37781,2.74444,7.27523,7.27523,0,0,1-4.20177.98225q-5.9406,0-5.941-4.04341h1.53616a2.5678,2.5678,0,0,0,1.1748,2.06635,6.74525,6.74525,0,0,0,3.23.57624,6.13386,6.13386,0,0,0,3.027-.54136,1.847,1.847,0,0,0,.88109-1.69522,1.4581,1.4581,0,0,0-1.01643-1.38827,13.06713,13.06713,0,0,0-3.5802-.67808,8.7279,8.7279,0,0,1-3.70507-.95993,2.54726,2.54726,0,0,1-1.14061-2.32727A2.9213,2.9213,0,0,1,69.3192,112.409a6.59257,6.59257,0,0,1,3.72739-.91528,7.19643,7.19643,0,0,1,4.04342.9376,3.58644,3.58644,0,0,1,1.51314,2.90211Z" id="path12" style="fill:#ffffff;fill-opacity:1"></path>
      <path d="M80.59137,109.82218v-2.48493h1.67151v2.48493Zm0,13.77942V111.85505h1.67151V123.6016Z" id="path13" style="fill:#ffffff;fill-opacity:1"></path>
      <path d="M93.286,115.33339a2.72686,2.72686,0,0,0-1.29827-1.94218,6.04381,6.04381,0,0,0-2.72213-.49671q-3.41136,0-3.41137,2.01055a1.18993,1.18993,0,0,0,.57624,1.09527,4.88539,4.88539,0,0,0,1.728.53019l3.79506.61112a5.16286,5.16286,0,0,1,2.47377.94876,2.59093,2.59093,0,0,1,.86924,2.14589,3.17966,3.17966,0,0,1-1.37781,2.74444,7.27523,7.27523,0,0,1-4.20177.98225q-5.9406,0-5.941-4.04341h1.53616a2.5678,2.5678,0,0,0,1.1748,2.06635,6.74525,6.74525,0,0,0,3.23.57624,6.13386,6.13386,0,0,0,3.027-.54136,1.847,1.847,0,0,0,.88109-1.69522,1.4581,1.4581,0,0,0-1.01643-1.38827,13.06713,13.06713,0,0,0-3.5802-.67808,8.7279,8.7279,0,0,1-3.70507-.95993,2.54726,2.54726,0,0,1-1.14061-2.32727,2.9213,2.9213,0,0,1,1.35548-2.56306,6.59257,6.59257,0,0,1,3.72739-.91528,7.19643,7.19643,0,0,1,4.04342.9376,3.58644,3.58644,0,0,1,1.51314,2.90211Z" id="path14" style="fill:#ffffff;fill-opacity:1"></path>
      <path d="M108.8046,119.40053a5.64261,5.64261,0,0,1-1.98823,3.33184,6.12681,6.12681,0,0,1-3.95342,1.2306,6.79346,6.79346,0,0,1-4.82266-1.6715,6.71221,6.71221,0,0,1-.02232-9.11513,6.75017,6.75017,0,0,1,4.845-1.68266,6.47183,6.47183,0,0,1,3.94226,1.14131,4.76573,4.76573,0,0,1,1.9087,3.05977H107.0424q-.7461-2.80026-4.17945-2.80026a4.92465,4.92465,0,0,0-3.62554,1.31014,5.37412,5.37412,0,0,0,0,7.05854,4.94727,4.94727,0,0,0,3.62554,1.299,4.61437,4.61437,0,0,0,2.77863-.80087,3.96055,3.96055,0,0,0,1.49082-2.36075Z" id="path15" style="fill:#ffffff;fill-opacity:1"></path>
      <path d="M120.3921,123.6016v-7.63477a2.95353,2.95353,0,0,0-.85808-2.27006,3.87767,3.87767,0,0,0-2.711-.80227,5.03,5.03,0,0,0-3.53485,1.11759,4.0535,4.0535,0,0,0-1.209,3.12954v6.46h-1.6715V107.33725h1.6715V114.16h.04535a3.76279,3.76279,0,0,1,1.80754-1.89753,6.19844,6.19844,0,0,1,3.07163-.76878,5.35943,5.35943,0,0,1,3.80622,1.186,4.67345,4.67345,0,0,1,1.25432,3.55787v7.36409Z" id="path16" style="fill:#ffffff;fill-opacity:1"></path>
      <path d="M125.65565,118.135a4.18377,4.18377,0,0,0,1.31014,3.1965,4.77915,4.77915,0,0,0,3.41067,1.23061,6.41341,6.41341,0,0,0,3.07233-.60972,3.45456,3.45456,0,0,0,1.58081-2.10124h1.6722a5.55134,5.55134,0,0,1-2.30425,3.08349,7.38736,7.38736,0,0,1-4.02109,1.02829,6.30344,6.30344,0,0,1-4.69848-1.71615,6.15592,6.15592,0,0,1-1.69453-4.5178,6.05073,6.05073,0,0,1,1.751-4.50663,6.31905,6.31905,0,0,1,4.642-1.72871,6.03365,6.03365,0,0,1,6.619,6.64136Zm9.66764-1.26549a4.48822,4.48822,0,0,0-1.58081-2.93559,5.59522,5.59522,0,0,0-6.57369.05581,4.1155,4.1155,0,0,0-1.51314,2.87978Z" id="path17" style="fill:#ffffff;fill-opacity:1"></path>
      <path d="M147.52121,115.33339a2.72683,2.72683,0,0,0-1.29827-1.94218,6.04379,6.04379,0,0,0-2.72212-.49671q-3.41137,0-3.41137,2.01055a1.18992,1.18992,0,0,0,.57623,1.09527,4.88539,4.88539,0,0,0,1.728.53019l3.79506.61112a5.16286,5.16286,0,0,1,2.47377.94876,2.5909,2.5909,0,0,1,.86924,2.14589,3.17968,3.17968,0,0,1-1.3778,2.74444,7.27526,7.27526,0,0,1-4.20178.98225q-5.9406,0-5.94095-4.04341h1.53616a2.5678,2.5678,0,0,0,1.1748,2.06635,6.74525,6.74525,0,0,0,3.23.57624,6.13386,6.13386,0,0,0,3.027-.54136,1.847,1.847,0,0,0,.8811-1.69522,1.4581,1.4581,0,0,0-1.01644-1.38827,13.06712,13.06712,0,0,0-3.58019-.67808,8.72781,8.72781,0,0,1-3.70507-.95993A2.54724,2.54724,0,0,1,138.418,114.972a2.92129,2.92129,0,0,1,1.35547-2.56306,6.59259,6.59259,0,0,1,3.7274-.91528,7.1964,7.1964,0,0,1,4.04341.9376,3.58647,3.58647,0,0,1,1.51315,2.90211Z" id="path18" style="fill:#ffffff;fill-opacity:1"></path>
      <path d="M155.518,123.6016v-16.129h1.6715v16.129Z" id="path19" style="fill:#ffffff;fill-opacity:1"></path>
      <path d="M169.88418,123.6016v-7.63477a2.92319,2.92319,0,0,0-.86924-2.28122,3.91787,3.91787,0,0,0-2.6998-.79111,5.03,5.03,0,0,0-3.53485,1.11759,4.05349,4.05349,0,0,0-1.209,3.12954v6.46h-1.67151V111.85505h1.67151V114.16h.04534a3.7567,3.7567,0,0,1,1.8187-1.89753,6.21867,6.21867,0,0,1,3.06047-.76878,5.30722,5.30722,0,0,1,3.79506,1.20828,4.66471,4.66471,0,0,1,1.26549,3.53555v7.36409Z" id="path20" style="fill:#ffffff;fill-opacity:1"></path>
      <path d="M182.62415,115.33339a2.72684,2.72684,0,0,0-1.29828-1.94218,6.04373,6.04373,0,0,0-2.72212-.49671q-3.41136,0-3.41137,2.01055a1.18993,1.18993,0,0,0,.57624,1.09527,4.88539,4.88539,0,0,0,1.728.53019l3.79506.61112a5.1629,5.1629,0,0,1,2.47377.94876,2.59092,2.59092,0,0,1,.86923,2.14589,3.17965,3.17965,0,0,1-1.3778,2.74444,7.27524,7.27524,0,0,1-4.20178.98225q-5.9406,0-5.94094-4.04341h1.53616a2.5678,2.5678,0,0,0,1.17479,2.06635,6.74531,6.74531,0,0,0,3.23.57624,6.13381,6.13381,0,0,0,3.027-.54136,1.847,1.847,0,0,0,.8811-1.69522,1.4581,1.4581,0,0,0-1.01643-1.38827,13.06722,13.06722,0,0,0-3.5802-.67808,8.7279,8.7279,0,0,1-3.70507-.95993,2.54724,2.54724,0,0,1-1.14061-2.32727,2.9213,2.9213,0,0,1,1.35548-2.56306,6.59255,6.59255,0,0,1,3.72739-.91528,7.19643,7.19643,0,0,1,4.04342.9376,3.58644,3.58644,0,0,1,1.51314,2.90211Z" id="path21" style="fill:#ffffff;fill-opacity:1"></path>
      <path d="M192.31481,123.64625a13.92636,13.92636,0,0,1-1.82916.13674,3.74137,3.74137,0,0,1-2.46261-.62228,2.8458,2.8458,0,0,1-.70041-2.2017v-7.83848h-2.52958v-1.26548h2.52958v-3.70437h1.6715v3.70437h3.32068v1.26548h-3.32068v7.74779a1.59873,1.59873,0,0,0,.35021,1.1748,1.9671,1.9671,0,0,0,1.34432.339q.564,0,.94876-.03488a5.03,5.03,0,0,0,.67739-.10046Z" id="path22" style="fill:#ffffff;fill-opacity:1"></path>
      <path d="M193.851,109.82218v-2.48493h1.6715v2.48493Zm0,13.77942V111.85505h1.6715V123.6016Z" id="path23" style="fill:#ffffff;fill-opacity:1"></path>
      <path d="M203.92533,123.64625a13.92636,13.92636,0,0,1-1.82916.13674,3.74137,3.74137,0,0,1-2.46261-.62228,2.8458,2.8458,0,0,1-.70041-2.2017v-7.83848h-2.52958v-1.26548h2.52958v-3.70437h1.6715v3.70437h3.32068v1.26548h-3.32068v7.74779a1.59873,1.59873,0,0,0,.35021,1.1748,1.9671,1.9671,0,0,0,1.34432.339q.564,0,.94876-.03488a5.03,5.03,0,0,0,.67739-.10046Z" id="path24" style="fill:#ffffff;fill-opacity:1"></path>
      <path d="M215.4912,123.6016v-2.30354h-.04464a4.0158,4.0158,0,0,1-1.8187,1.91985,6.126,6.126,0,0,1-3.06117.74506,5.28627,5.28627,0,0,1-3.82855-1.20828,4.73582,4.73582,0,0,1-1.2313-3.53555v-7.36409h1.6715v7.63477a2.95463,2.95463,0,0,0,.85877,2.27146,3.87534,3.87534,0,0,0,2.711.80087,5.03114,5.03114,0,0,0,3.53485-1.11759,4.051,4.051,0,0,0,1.20828-3.12953v-6.46h1.6722V123.6016Z" id="path25" style="fill:#ffffff;fill-opacity:1"></path>
      <path d="M225.61091,123.64625a13.9265,13.9265,0,0,1-1.82917.13674,3.74136,3.74136,0,0,1-2.4626-.62228,2.8458,2.8458,0,0,1-.70042-2.2017v-7.83848h-2.52957v-1.26548h2.52957v-3.70437h1.67151v3.70437h3.32068v1.26548h-3.32068v7.74779a1.59878,1.59878,0,0,0,.3502,1.1748,1.96714,1.96714,0,0,0,1.34432.339q.564,0,.94877-.03488a5.03044,5.03044,0,0,0,.67739-.10046Z" id="path26" style="fill:#ffffff;fill-opacity:1"></path>
    </g>
    <polygon points="3.564 3.564 3.564 102.267 102.265 102.267 102.265 37.535 68.169 3.564 3.564 3.564" id="polygon26" style="fill:#ffffff;fill-opacity:1"></polygon>
    <g id="g29" style="fill:#000000;fill-opacity:1">
      <path class="cls-1" d="M8.80051,69.6573H31.54507v4.289H14.544v6.8925H30.62631v4.28759H14.544V96.9971H8.80051Z" id="path27" style="fill:#000000;fill-opacity:1"></path>
      <path class="cls-1" d="M49.58,68.89131a19.287,19.287,0,0,1,9.01816,1.89614,12.30107,12.30107,0,0,1,5.341,5.13031,16.79182,16.79182,0,0,1,0,14.81888A12.3617,12.3617,0,0,1,58.65535,95.867,19.211,19.211,0,0,1,49.58,97.76309,19.286,19.286,0,0,1,40.56253,95.867a12.303,12.303,0,0,1-5.34169-5.13031,16.71092,16.71092,0,0,1,0-14.78121,12.24291,12.24291,0,0,1,5.34169-5.168A19.286,19.286,0,0,1,49.58,68.89131Zm0,4.289a9.91738,9.91738,0,0,0-7.37107,2.757,10.02573,10.02573,0,0,0-2.73747,7.38921A9.46515,9.46515,0,0,0,49.58,93.47411a9.94941,9.94941,0,0,0,7.39061-2.73747,10.05155,10.05155,0,0,0,2.71863-7.41014,10.02614,10.02614,0,0,0-2.73817-7.38921A9.91845,9.91845,0,0,0,49.58,73.18029Z" id="path28" style="fill:#000000;fill-opacity:1"></path>
      <path class="cls-1" d="M69.721,69.6573h17.3073q4.63255,0,6.93087,1.8766a6.74664,6.74664,0,0,1,2.29727,5.55168,6.84347,6.84347,0,0,1-1.28223,4.32665,6.47242,6.47242,0,0,1-3.23557,2.2589v.07673a4.33582,4.33582,0,0,1,3.04373,2.164,11.22922,11.22922,0,0,1,.9383,5.22658,20.49689,20.49689,0,0,0,.32509,3.82855,5.36006,5.36006,0,0,0,.82389,2.03008H90.66643a5.68637,5.68637,0,0,1-.4981-1.60872,14.14467,14.14467,0,0,1-.19115-2.52678,13.32385,13.32385,0,0,0-.4409-3.982,3.74791,3.74791,0,0,0-1.47407-1.991,5.04878,5.04878,0,0,0-2.833-.68925H75.46455V96.9971H69.721Zm15.66091,12.253a6.43127,6.43127,0,0,0,3.65694-.86087,3.58541,3.58541,0,0,0,1.24455-3.16022,3.44491,3.44491,0,0,0-1.30176-3.02489,6.15826,6.15826,0,0,0-3.59973-.91807H75.46455v7.96405Z" id="path29" style="fill:#000000;fill-opacity:1"></path>
    </g>
  </g>
</svg>
