<?xml version="1.0" encoding="UTF-8"?>
<!-- Generator: Adobe Illustrator 27.2.0, SVG Export Plug-In . SVG Version: 6.00 Build 0)  -->
<svg xmlns="http://www.w3.org/2000/svg" xmlns:xlink="http://www.w3.org/1999/xlink" version="1.1" id="Ebene_1" x="0px" y="0px" viewBox="0 0 229.12 127.53" style="enable-background:new 0 0 229.12 127.53;" xml:space="preserve">
<style type="text/css">
	.st0{fill:#ED7000;}
	.st1{fill:#FFFFFF;}
</style>
<g>
	<g>
		<path d="M107.42,97v-2.6l20.8-22.13h-19.47v-2.6h23.39v2.6l-20.92,22.13h21.23V97H107.42z"></path>
		<path d="M152.24,97v-3.91h-0.08c-0.58,1.33-1.63,2.41-3.16,3.25c-1.53,0.84-3.3,1.26-5.32,1.26c-3.01,0-5.23-0.68-6.65-2.05    c-1.43-1.37-2.14-3.36-2.14-5.99V77.09h2.9v12.94c0,1.66,0.5,2.94,1.49,3.85c0.99,0.91,2.56,1.36,4.71,1.36    c2.69,0,4.74-0.63,6.14-1.9c1.4-1.26,2.1-3.03,2.1-5.3V77.09h2.9V97H152.24z M139.13,73.45v-4.21H142v4.21H139.13z M147.96,73.45    v-4.21h2.9v4.21H147.96z"></path>
		<path d="M159.62,97V77.09h2.9v4.56h0.08c0.81-1.81,1.85-3.13,3.12-3.94c1.27-0.82,2.85-1.23,4.73-1.23c0.79,0,1.35,0.05,1.69,0.15    v2.91c-0.94-0.15-1.82-0.23-2.63-0.23c-2.01,0-3.68,0.68-5,2.03c-1.32,1.35-1.98,3.13-1.98,5.32V97H159.62z"></path>
		<path d="M174.06,73.64v-4.21h2.9v4.21H174.06z M174.06,97V77.09h2.9V97H174.06z"></path>
		<path d="M202.13,89.88c-0.52,2.37-1.67,4.26-3.45,5.65c-1.78,1.39-4.07,2.09-6.87,2.09c-3.51,0-6.3-0.94-8.38-2.83    c-2.08-1.89-3.12-4.47-3.12-7.73c0-3.24,1.03-5.81,3.08-7.72c2.05-1.9,4.86-2.85,8.42-2.85c2.77,0,5.06,0.64,6.85,1.93    c1.79,1.29,2.9,3.02,3.32,5.19h-2.9c-0.86-3.17-3.28-4.75-7.26-4.75c-2.67,0-4.77,0.74-6.3,2.22c-1.53,1.48-2.3,3.47-2.3,5.97    c0,2.53,0.77,4.52,2.3,5.99c1.53,1.47,3.63,2.2,6.3,2.2c1.94,0,3.55-0.45,4.83-1.36c1.28-0.91,2.15-2.24,2.59-4H202.13z"></path>
		<path d="M222.69,97V84.06c0-1.66-0.5-2.94-1.49-3.85c-0.99-0.91-2.56-1.36-4.71-1.36c-2.7,0-4.74,0.63-6.14,1.9    c-1.4,1.26-2.1,3.03-2.1,5.3V97h-2.9V69.43h2.9v11.56h0.08c0.5-1.28,1.54-2.35,3.14-3.22s3.38-1.3,5.34-1.3    c2.96,0,5.16,0.67,6.61,2.01c1.45,1.34,2.18,3.35,2.18,6.03V97H222.69z"></path>
	</g>
	<g>
		<path d="M5.32,116.01v7.59H3.65v-16.13h12.08v1.54H5.32v5.47h9.89v1.54H5.32z"></path>
		<path d="M16.6,117.73c0-1.1,0.24-2.12,0.71-3.06c0.47-0.94,1.21-1.71,2.21-2.29c1-0.59,2.25-0.88,3.74-0.88    c2.05,0,3.67,0.58,4.87,1.75c1.2,1.17,1.8,2.66,1.8,4.48c0,1.88-0.61,3.39-1.82,4.53c-1.21,1.14-2.83,1.7-4.84,1.7    c-2.02,0-3.63-0.57-4.85-1.72C17.2,121.1,16.6,119.6,16.6,117.73z M18.27,117.73c0,1.45,0.45,2.61,1.37,3.5    c0.91,0.89,2.12,1.33,3.63,1.33c1.49,0,2.7-0.44,3.61-1.31c0.92-0.87,1.38-2.05,1.38-3.52c0-0.95-0.21-1.8-0.62-2.54    c-0.41-0.75-1-1.31-1.75-1.7c-0.75-0.39-1.63-0.59-2.64-0.59c-1.49,0-2.69,0.44-3.6,1.33C18.72,115.12,18.27,116.28,18.27,117.73z    "></path>
		<path d="M31.84,123.6v-11.75h1.67v2.69h0.05c0.47-1.07,1.07-1.84,1.8-2.33c0.73-0.48,1.64-0.72,2.72-0.72    c0.45,0,0.78,0.03,0.97,0.09v1.72c-0.54-0.09-1.05-0.14-1.51-0.14c-1.16,0-2.12,0.4-2.88,1.2c-0.76,0.8-1.14,1.84-1.14,3.14v6.1    H31.84z"></path>
		<path d="M41.22,118.14c0,1.31,0.44,2.38,1.31,3.2c0.87,0.82,2.01,1.23,3.41,1.23c1.31,0,2.33-0.2,3.07-0.61    c0.74-0.41,1.26-1.11,1.58-2.1h1.67c-0.45,1.37-1.22,2.4-2.3,3.08c-1.08,0.69-2.42,1.03-4.02,1.03c-2,0-3.57-0.57-4.7-1.72    c-1.13-1.15-1.69-2.65-1.69-4.52c0-1.85,0.58-3.36,1.75-4.51c1.17-1.15,2.71-1.73,4.64-1.73c2.09,0,3.72,0.58,4.88,1.73    c1.16,1.15,1.74,2.79,1.74,4.91H41.22z M50.89,116.87c-0.2-1.26-0.72-2.24-1.58-2.94c-0.86-0.69-1.95-1.04-3.28-1.04    c-1.31,0-2.41,0.37-3.3,1.1c-0.89,0.73-1.39,1.69-1.51,2.88H50.89z"></path>
		<path d="M64.33,123.6v-7.63c0-0.99-0.29-1.76-0.87-2.28c-0.58-0.53-1.48-0.79-2.7-0.79c-1.55,0-2.73,0.37-3.53,1.12    c-0.81,0.75-1.21,1.79-1.21,3.13v6.46h-1.67v-11.75h1.67v2.3h0.05c0.29-0.75,0.89-1.39,1.82-1.9c0.93-0.51,1.95-0.77,3.06-0.77    c1.69,0,2.95,0.4,3.8,1.21c0.84,0.81,1.27,1.98,1.27,3.54v7.36H64.33z"></path>
		<path d="M77.07,115.33c-0.23-0.96-0.66-1.61-1.3-1.94c-0.64-0.33-1.55-0.5-2.72-0.5c-2.27,0-3.41,0.67-3.41,2.01    c0,0.5,0.19,0.86,0.58,1.1c0.38,0.23,0.96,0.41,1.73,0.53l3.8,0.61c1.07,0.17,1.89,0.48,2.47,0.95c0.58,0.47,0.87,1.18,0.87,2.15    c0,1.17-0.46,2.09-1.38,2.74c-0.92,0.65-2.32,0.98-4.2,0.98c-3.96,0-5.94-1.35-5.94-4.04h1.54c0.12,0.99,0.51,1.68,1.17,2.07    c0.66,0.39,1.74,0.58,3.23,0.58c1.43,0,2.44-0.18,3.03-0.54c0.59-0.36,0.88-0.93,0.88-1.7c0-0.63-0.34-1.1-1.02-1.39    c-0.68-0.29-1.87-0.52-3.58-0.68s-2.94-0.48-3.71-0.96c-0.76-0.48-1.14-1.26-1.14-2.33c0-1.1,0.45-1.95,1.36-2.56    c0.9-0.61,2.15-0.92,3.73-0.92c1.78,0,3.12,0.31,4.04,0.94c0.92,0.63,1.42,1.59,1.51,2.9H77.07z"></path>
		<path d="M80.59,109.82v-2.48h1.67v2.48H80.59z M80.59,123.6v-11.75h1.67v11.75H80.59z"></path>
		<path d="M93.29,115.33c-0.23-0.96-0.66-1.61-1.3-1.94c-0.64-0.33-1.55-0.5-2.72-0.5c-2.27,0-3.41,0.67-3.41,2.01    c0,0.5,0.19,0.86,0.58,1.1c0.38,0.23,0.96,0.41,1.73,0.53l3.8,0.61c1.07,0.17,1.89,0.48,2.47,0.95c0.58,0.47,0.87,1.18,0.87,2.15    c0,1.17-0.46,2.09-1.38,2.74c-0.92,0.65-2.32,0.98-4.2,0.98c-3.96,0-5.94-1.35-5.94-4.04h1.54c0.12,0.99,0.51,1.68,1.17,2.07    c0.66,0.39,1.74,0.58,3.23,0.58c1.43,0,2.44-0.18,3.03-0.54c0.59-0.36,0.88-0.93,0.88-1.7c0-0.63-0.34-1.1-1.02-1.39    c-0.68-0.29-1.87-0.52-3.58-0.68s-2.94-0.48-3.71-0.96c-0.76-0.48-1.14-1.26-1.14-2.33c0-1.1,0.45-1.95,1.36-2.56    c0.9-0.61,2.15-0.92,3.73-0.92c1.78,0,3.12,0.31,4.04,0.94c0.92,0.63,1.42,1.59,1.51,2.9H93.29z"></path>
		<path d="M108.8,119.4c-0.3,1.4-0.96,2.51-1.99,3.33s-2.34,1.23-3.95,1.23c-2.02,0-3.63-0.56-4.82-1.67s-1.8-2.64-1.8-4.56    c0-1.91,0.59-3.43,1.77-4.55c1.18-1.12,2.8-1.68,4.84-1.68c1.6,0,2.91,0.38,3.94,1.14c1.03,0.76,1.67,1.78,1.91,3.06h-1.67    c-0.5-1.87-1.89-2.8-4.18-2.8c-1.54,0-2.74,0.44-3.63,1.31c-0.88,0.87-1.32,2.05-1.32,3.52c0,1.49,0.44,2.67,1.32,3.53    c0.88,0.87,2.09,1.3,3.63,1.3c1.11,0,2.04-0.27,2.78-0.8s1.23-1.32,1.49-2.36H108.8z"></path>
		<path d="M120.39,123.6v-7.63c0-0.98-0.29-1.74-0.86-2.27c-0.57-0.53-1.48-0.8-2.71-0.8c-1.55,0-2.73,0.37-3.53,1.12    c-0.81,0.75-1.21,1.79-1.21,3.13v6.46h-1.67v-16.26h1.67v6.82h0.05c0.29-0.75,0.89-1.39,1.81-1.9c0.92-0.51,1.94-0.77,3.07-0.77    c1.7,0,2.97,0.39,3.81,1.19c0.84,0.79,1.25,1.98,1.25,3.56v7.36H120.39z"></path>
		<path d="M125.66,118.14c0,1.31,0.44,2.38,1.31,3.2c0.87,0.82,2.01,1.23,3.41,1.23c1.31,0,2.33-0.2,3.07-0.61    c0.74-0.41,1.26-1.11,1.58-2.1h1.67c-0.45,1.37-1.22,2.4-2.3,3.08s-2.42,1.03-4.02,1.03c-2,0-3.57-0.57-4.7-1.72    c-1.13-1.15-1.69-2.65-1.69-4.52c0-1.85,0.58-3.36,1.75-4.51c1.17-1.15,2.71-1.73,4.64-1.73c2.09,0,3.72,0.58,4.88,1.73    c1.16,1.15,1.74,2.79,1.74,4.91H125.66z M135.32,116.87c-0.2-1.26-0.72-2.24-1.58-2.94c-0.86-0.69-1.95-1.04-3.28-1.04    c-1.31,0-2.41,0.37-3.3,1.1c-0.89,0.73-1.39,1.69-1.51,2.88H135.32z"></path>
		<path d="M147.52,115.33c-0.23-0.96-0.66-1.61-1.3-1.94c-0.64-0.33-1.55-0.5-2.72-0.5c-2.27,0-3.41,0.67-3.41,2.01    c0,0.5,0.19,0.86,0.58,1.1c0.38,0.23,0.96,0.41,1.73,0.53l3.8,0.61c1.07,0.17,1.89,0.48,2.47,0.95c0.58,0.47,0.87,1.18,0.87,2.15    c0,1.17-0.46,2.09-1.38,2.74c-0.92,0.65-2.32,0.98-4.2,0.98c-3.96,0-5.94-1.35-5.94-4.04h1.54c0.12,0.99,0.51,1.68,1.17,2.07    c0.66,0.39,1.74,0.58,3.23,0.58c1.43,0,2.44-0.18,3.03-0.54c0.59-0.36,0.88-0.93,0.88-1.7c0-0.63-0.34-1.1-1.02-1.39    c-0.68-0.29-1.87-0.52-3.58-0.68s-2.94-0.48-3.71-0.96c-0.76-0.48-1.14-1.26-1.14-2.33c0-1.1,0.45-1.95,1.36-2.56    c0.9-0.61,2.15-0.92,3.73-0.92c1.78,0,3.12,0.31,4.04,0.94c0.92,0.63,1.42,1.59,1.51,2.9H147.52z"></path>
		<path d="M155.52,123.6v-16.13h1.67v16.13H155.52z"></path>
		<path d="M169.88,123.6v-7.63c0-0.99-0.29-1.76-0.87-2.28c-0.58-0.53-1.48-0.79-2.7-0.79c-1.55,0-2.73,0.37-3.53,1.12    c-0.81,0.75-1.21,1.79-1.21,3.13v6.46h-1.67v-11.75h1.67v2.3h0.05c0.29-0.75,0.89-1.39,1.82-1.9c0.93-0.51,1.95-0.77,3.06-0.77    c1.69,0,2.95,0.4,3.8,1.21c0.84,0.81,1.27,1.98,1.27,3.54v7.36H169.88z"></path>
		<path d="M182.62,115.33c-0.23-0.96-0.66-1.61-1.3-1.94c-0.64-0.33-1.55-0.5-2.72-0.5c-2.27,0-3.41,0.67-3.41,2.01    c0,0.5,0.19,0.86,0.58,1.1c0.38,0.23,0.96,0.41,1.73,0.53l3.8,0.61c1.07,0.17,1.89,0.48,2.47,0.95c0.58,0.47,0.87,1.18,0.87,2.15    c0,1.17-0.46,2.09-1.38,2.74c-0.92,0.65-2.32,0.98-4.2,0.98c-3.96,0-5.94-1.35-5.94-4.04h1.54c0.12,0.99,0.51,1.68,1.17,2.07    c0.66,0.39,1.74,0.58,3.23,0.58c1.43,0,2.44-0.18,3.03-0.54c0.59-0.36,0.88-0.93,0.88-1.7c0-0.63-0.34-1.1-1.02-1.39    c-0.68-0.29-1.87-0.52-3.58-0.68s-2.94-0.48-3.71-0.96c-0.76-0.48-1.14-1.26-1.14-2.33c0-1.1,0.45-1.95,1.36-2.56    c0.9-0.61,2.15-0.92,3.73-0.92c1.78,0,3.12,0.31,4.04,0.94c0.92,0.63,1.42,1.59,1.51,2.9H182.62z"></path>
		<path d="M192.31,123.65c-0.68,0.09-1.29,0.14-1.83,0.14c-1.17,0-2-0.21-2.46-0.62c-0.47-0.41-0.7-1.15-0.7-2.2v-7.84h-2.53v-1.27    h2.53v-3.7h1.67v3.7h3.32v1.27h-3.32v7.75c0,0.56,0.12,0.95,0.35,1.17c0.23,0.23,0.68,0.34,1.34,0.34c0.38,0,0.69-0.01,0.95-0.03    c0.26-0.02,0.48-0.06,0.68-0.1V123.65z"></path>
		<path d="M193.85,109.82v-2.48h1.67v2.48H193.85z M193.85,123.6v-11.75h1.67v11.75H193.85z"></path>
		<path d="M203.93,123.65c-0.68,0.09-1.29,0.14-1.83,0.14c-1.17,0-2-0.21-2.46-0.62c-0.47-0.41-0.7-1.15-0.7-2.2v-7.84h-2.53v-1.27    h2.53v-3.7h1.67v3.7h3.32v1.27h-3.32v7.75c0,0.56,0.12,0.95,0.35,1.17c0.23,0.23,0.68,0.34,1.34,0.34c0.38,0,0.69-0.01,0.95-0.03    c0.26-0.02,0.48-0.06,0.68-0.1V123.65z"></path>
		<path d="M215.49,123.6v-2.3h-0.04c-0.33,0.78-0.94,1.42-1.82,1.92c-0.88,0.5-1.9,0.75-3.06,0.75c-1.73,0-3.01-0.4-3.83-1.21    c-0.82-0.81-1.23-1.98-1.23-3.54v-7.36h1.67v7.63c0,0.98,0.29,1.74,0.86,2.27c0.57,0.53,1.48,0.8,2.71,0.8    c1.55,0,2.73-0.37,3.53-1.12c0.81-0.75,1.21-1.79,1.21-3.13v-6.46h1.67v11.75H215.49z"></path>
		<path d="M225.61,123.65c-0.68,0.09-1.29,0.14-1.83,0.14c-1.17,0-2-0.21-2.46-0.62c-0.47-0.41-0.7-1.15-0.7-2.2v-7.84h-2.53v-1.27    h2.53v-3.7h1.67v3.7h3.32v1.27h-3.32v7.75c0,0.56,0.12,0.95,0.35,1.17c0.23,0.23,0.68,0.34,1.34,0.34c0.38,0,0.69-0.01,0.95-0.03    c0.26-0.02,0.48-0.06,0.68-0.1V123.65z"></path>
	</g>
	<polygon class="st0" points="3.56,3.56 3.56,102.27 102.27,102.27 102.27,37.53 68.17,3.56  "></polygon>
	<g>
		<path class="st1" d="M8.8,69.66h22.74v4.29h-17v6.89h16.08v4.29H14.54V97H8.8V69.66z"></path>
		<path class="st1" d="M49.58,68.89c3.6,0,6.61,0.63,9.02,1.9c2.41,1.26,4.19,2.97,5.34,5.13c1.15,2.16,1.72,4.63,1.72,7.41    c0,2.78-0.57,5.25-1.72,7.41c-1.15,2.16-2.91,3.87-5.28,5.13c-2.37,1.26-5.4,1.9-9.08,1.9c-3.6,0-6.61-0.63-9.02-1.9    c-2.41-1.26-4.19-2.97-5.34-5.13c-1.15-2.16-1.72-4.63-1.72-7.41c0-2.73,0.57-5.19,1.72-7.37c1.15-2.18,2.93-3.91,5.34-5.17    C42.97,69.52,45.98,68.89,49.58,68.89z M49.58,73.18c-3.09,0-5.55,0.92-7.37,2.76c-1.82,1.84-2.74,4.3-2.74,7.39    c0,3.12,0.92,5.59,2.76,7.41c1.84,1.82,4.29,2.74,7.35,2.74c3.11,0,5.58-0.91,7.39-2.74c1.81-1.82,2.72-4.29,2.72-7.41    c0-3.09-0.91-5.55-2.74-7.39C55.13,74.1,52.67,73.18,49.58,73.18z"></path>
		<path class="st1" d="M69.72,69.66h17.31c3.09,0,5.4,0.63,6.93,1.88c1.53,1.25,2.3,3.1,2.3,5.55c0,1.79-0.43,3.23-1.28,4.33    c-0.86,1.1-1.93,1.85-3.24,2.26v0.08c1.4,0.31,2.42,1.03,3.04,2.16c0.63,1.14,0.94,2.88,0.94,5.23c0.03,1.69,0.13,2.96,0.33,3.83    c0.19,0.87,0.47,1.55,0.82,2.03h-6.2c-0.21-0.38-0.37-0.92-0.5-1.61s-0.19-1.53-0.19-2.53c0-1.79-0.15-3.11-0.44-3.98    c-0.29-0.87-0.78-1.53-1.47-1.99c-0.69-0.46-1.63-0.69-2.83-0.69h-9.76V97h-5.74V69.66z M85.38,81.91c1.61,0,2.83-0.29,3.66-0.86    c0.83-0.57,1.24-1.63,1.24-3.16c0-1.4-0.43-2.41-1.3-3.02c-0.87-0.61-2.07-0.92-3.6-0.92h-9.92v7.96H85.38z"></path>
	</g>
</g>
</svg>
